<svg width="240" height="368" stroke="blue" stroke-width="1" fill="none" stroke-linejoin="round" xmlns="http://www.w3.org/2000/svg"><rect x="-1" y="-1" width="242" height="182" fill="#f9f9f9" stroke="none"/><rect x="-1" y="187" width="242" height="182" fill="#f9f9f9" stroke="none"/><path d=" M 0.00 59.26 L 1.00 90.17 L 2.01 73.44 L 3.01 58.32 L 4.02 30.23 L 5.02 103.78 L 6.03 85.66 L 7.03 96.18 L 8.03 63.40 L 9.04 69.19 L 10.04 112.07 L 11.05 123.69 L 12.05 69.15 L 13.05 89.86 L 14.06 29.75 L 15.06 72.37 L 16.07 94.26 L 17.07 82.16 L 18.08 95.79 L 19.08 55.57 L 20.08 120.59 L 21.09 107.50 L 22.09 64.14 L 23.10 92.34 L 24.10 113.08 L 25.10 117.46 L 26.11 62.18 L 27.11 25.30 L 28.12 93.72 L 29.12 148.18 L 30.13 180.00 L 31.13 107.91 L 32.13 76.30 L 33.14 3.00 L 34.14 85.67 L 35.15 49.55 L 36.15 80.90 L 37.15 81.71 L 38.16 71.92 L 39.16 69.55 L 40.17 61.80 L 41.17 78.21 L 42.18 105.98 L 43.18 53.49 L 44.18 77.44 L 45.19 82.16 L 46.19 27.92 L 47.20 109.53 L 48.20 61.16 L 49.21 56.80 L 50.21 97.31 L 51.21 97.99 L 52.22 117.47 L 53.22 65.69 L 54.23 119.34 L 55.23 132.67 L 56.23 92.51 L 57.24 104.25 L 58.24 108.03 L 59.25 98.68 L 60.25 79.20 L 61.26 78.94 L 62.26 77.27 L 63.26 97.30 L 64.27 0.00 L 65.27 73.10 L 66.28 111.86 L 67.28 69.94 L 68.28 85.24 L 69.29 51.23 L 70.29 91.68 L 71.30 76.80 L 72.30 30.46 L 73.31 40.77 L 74.31 70.90 L 75.31 83.69 L 76.32 49.06 L 77.32 92.52 L 78.33 79.84 L 79.33 40.61 L 80.33 82.47 L 81.34 71.10 L 82.34 43.90 L 83.35 108.30 L 84.35 116.03 L 85.36 34.28 L 86.36 24.23 L 87.36 73.70 L 88.37 80.51 L 89.37 55.30 L 90.38 90.28 L 91.38 52.81 L 92.38 116.55 L 93.39 59.25 L 94.39 71.87 L 95.40 84.69 L 96.40 77.46 L 97.41 52.43 L 98.41 91.10 L 99.41 106.08 L 100.42 37.35 L 101.42 102.21 L 102.43 119.06 L 103.43 93.95 L 104.44 92.74 L 105.44 51.50 L 106.44 20.78 L 107.45 75.13 L 108.45 69.82 L 109.46 52.20 L 110.46 86.10 L 111.46 36.04 L 112.47 64.16 L 113.47 76.19 L 114.48 81.86 L 115.48 30.19 L 116.49 63.84 L 117.49 36.04 L 118.49 112.03 L 119.50 103.77 L 120.50 53.88 L 121.51 108.64 L 122.51 117.71 L 123.51 78.89 L 124.52 47.82 L 125.52 106.63 L 126.53 56.69 L 127.53 51.43 L 128.54 93.41 L 129.54 111.20 L 130.54 79.58 L 131.55 82.33 L 132.55 91.82 L 133.56 112.03 L 134.56 85.55 L 135.56 153.95 L 136.57 100.99 L 137.57 71.07 L 138.58 8.93 L 139.58 71.33 L 140.59 72.88 L 141.59 106.22 L 142.59 121.96 L 143.60 50.21 L 144.60 116.58 L 145.61 98.64 L 146.61 125.37 L 147.62 63.21 L 148.62 100.10 L 149.62 93.23 L 150.63 27.92 L 151.63 114.37 L 152.64 124.13 L 153.64 68.03 L 154.64 113.91 L 155.65 50.58 L 156.65 110.57 L 157.66 127.01 L 158.66 53.15 L 159.67 42.01 L 160.67 68.20 L 161.67 114.99 L 162.68 54.01 L 163.68 76.16 L 164.69 106.14 L 165.69 133.40 L 166.69 68.77 L 167.70 100.27 L 168.70 102.11 L 169.71 71.79 L 170.71 81.46 L 171.72 117.78 L 172.72 81.68 L 173.72 133.45 L 174.73 54.87 L 175.73 56.46 L 176.74 88.59 L 177.74 51.54 L 178.74 79.32 L 179.75 106.69 L 180.75 110.90 L 181.76 44.93 L 182.76 58.30 L 183.77 79.09 L 184.77 67.28 L 185.77 69.12 L 186.78 35.11 L 187.78 4.95 L 188.79 75.35 L 189.79 80.89 L 190.79 32.14 L 191.80 125.20 L 192.80 101.32 L 193.81 94.79 L 194.81 65.31 L 195.82 37.46 L 196.82 41.79 L 197.82 38.40 L 198.83 110.65 L 199.83 97.90 L 200.84 64.10 L 201.84 70.90 L 202.85 111.33 L 203.85 95.55 L 204.85 3.40 L 205.86 101.37 L 206.86 55.03 L 207.87 64.99 L 208.87 51.61 L 209.87 37.59 L 210.88 2.55 L 211.88 105.26 L 212.89 92.81 L 213.89 61.16 L 214.90 41.60 L 215.90 57.74 L 216.90 79.06 L 217.91 100.73 L 218.91 89.65 L 219.92 68.36 L 220.92 78.48 L 221.92 72.72 L 222.93 73.67 L 223.93 46.89 L 224.94 94.32 L 225.94 29.62 L 226.95 89.56 L 227.95 89.15 L 228.95 123.16 L 229.96 108.10 L 230.96 84.00 L 231.97 125.30 L 232.97 40.83 L 233.97 130.79 L 234.98 61.30 L 235.98 100.55 L 236.99 95.28 L 237.99 91.08 L 239.00 116.29 L 240.00 142.23"/><path d="M 0 368 L 0.00 260.76 L 4.00 260.76 L 4.00 262.31 L 8.00 262.31 L 8.00 260.66 L 12.00 260.66 L 12.00 264.57 L 16.00 264.57 L 16.00 263.11 L 20.00 263.11 L 20.00 261.54 L 24.00 261.54 L 24.00 260.00 L 28.00 260.00 L 28.00 262.10 L 32.00 262.10 L 32.00 261.83 L 36.00 261.83 L 36.00 263.73 L 40.00 263.73 L 40.00 263.57 L 44.00 263.57 L 44.00 263.56 L 48.00 263.56 L 48.00 264.38 L 52.00 264.38 L 52.00 261.66 L 56.00 261.66 L 56.00 261.34 L 60.00 261.34 L 60.00 261.75 L 64.00 261.75 L 64.00 261.68 L 68.00 261.68 L 68.00 260.69 L 72.00 260.69 L 72.00 263.33 L 76.00 263.33 L 76.00 260.60 L 80.00 260.60 L 80.00 262.11 L 84.00 262.11 L 84.00 262.69 L 88.00 262.69 L 88.00 263.64 L 92.00 263.64 L 92.00 263.63 L 96.00 263.63 L 96.00 260.91 L 100.00 260.91 L 100.00 262.75 L 104.00 262.75 L 104.00 262.12 L 108.00 262.12 L 108.00 263.12 L 112.00 263.12 L 112.00 261.49 L 116.00 261.49 L 116.00 263.70 L 120.00 263.70 L 120.00 260.64 L 124.00 260.64 L 124.00 263.15 L 128.00 263.15 L 128.00 260.00 L 132.00 260.00 L 132.00 260.60 L 136.00 260.60 L 136.00 263.33 L 140.00 263.33 L 140.00 262.07 L 144.00 262.07 L 144.00 262.86 L 148.00 262.86 L 148.00 260.66 L 152.00 260.66 L 152.00 262.35 L 156.00 262.35 L 156.00 264.82 L 160.00 264.82 L 160.00 262.47 L 164.00 262.47 L 164.00 261.69 L 168.00 261.69 L 168.00 262.73 L 172.00 262.73 L 172.00 264.08 L 176.00 264.08 L 176.00 261.92 L 180.00 261.92 L 180.00 263.52 L 184.00 263.52 L 184.00 262.83 L 188.00 262.83 L 188.00 263.48 L 192.00 263.48 L 192.00 260.13 L 196.00 260.13 L 196.00 262.98 L 200.00 262.98 L 200.00 262.19 L 204.00 262.19 L 204.00 260.44 L 208.00 260.44 L 208.00 263.04 L 212.00 263.04 L 212.00 261.35 L 216.00 261.35 L 216.00 261.53 L 220.00 261.53 L 220.00 263.51 L 224.00 263.51 L 224.00 263.15 L 228.00 263.15 L 228.00 261.15 L 232.00 261.15 L 232.00 261.03 L 236.00 261.03 L 236.00 261.85 L 240.00 261.85 L 240 368 z" fill="blue" stroke="none"/></svg>