<svg width="240" height="180" xmlns="http://www.w3.org/2000/svg">
  <rect x="0" y="0" width="240" height="180" fill="#f9f9f9"></rect>
  <g fill="blue">
    <circle cx="149.78" cy="10.57" r="2"/><circle cx="135.45" cy="16.22" r="2"/><circle cx="137.86" cy="28.31" r="2"/><circle cx="123.79" cy="29.92" r="2"/><circle cx="112.44" cy="34.92" r="2"/><circle cx="105.44" cy="19.81" r="2"/><circle cx="117.49" cy="2.50" r="2"/><circle cx="133.21" cy="3.77" r="2"/><circle cx="124.68" cy="18.72" r="2"/><circle cx="104.63" cy="2.39" r="2"/><circle cx="91.78" cy="8.75" r="2"/><circle cx="76.24" cy="3.54" r="2"/><circle cx="73.59" cy="24.25" r="2"/><circle cx="65.37" cy="11.86" r="2"/><circle cx="51.38" cy="11.71" r="2"/><circle cx="38.78" cy="17.48" r="2"/><circle cx="21.16" cy="7.30" r="2"/><circle cx="8.71" cy="24.15" r="2"/><circle cx="9.48" cy="12.69" r="2"/><circle cx="21.71" cy="26.45" r="2"/><circle cx="22.71" cy="46.38" r="2"/><circle cx="20.49" cy="67.21" r="2"/><circle cx="34.23" cy="66.34" r="2"/><circle cx="45.27" cy="56.09" r="2"/><circle cx="44.69" cy="73.32" r="2"/><circle cx="61.20" cy="83.95" r="2"/><circle cx="55.96" cy="73.46" r="2"/><circle cx="59.90" cy="59.20" r="2"/><circle cx="66.94" cy="44.82" r="2"/><circle cx="76.17" cy="60.08" r="2"/><circle cx="93.16" cy="58.73" r="2"/><circle cx="108.40" cy="64.09" r="2"/><circle cx="128.05" cy="62.75" r="2"/><circle cx="134.58" cy="49.63" r="2"/><circle cx="132.97" cy="38.18" r="2"/><circle cx="145.98" cy="48.24" r="2"/><circle cx="148.13" cy="33.20" r="2"/><circle cx="154.47" cy="22.53" r="2"/><circle cx="163.27" cy="29.14" r="2"/><circle cx="169.57" cy="10.58" r="2"/><circle cx="188.27" cy="21.67" r="2"/><circle cx="195.15" cy="1.71" r="2"/><circle cx="209.93" cy="1.38" r="2"/><circle cx="221.41" cy="4.36" r="2"/><circle cx="205.12" cy="13.67" r="2"/><circle cx="199.33" cy="24.62" r="2"/><circle cx="181.82" cy="36.57" r="2"/><circle cx="174.06" cy="27.40" r="2"/><circle cx="170.28" cy="37.99" r="2"/><circle cx="172.14" cy="48.91" r="2"/><circle cx="160.33" cy="49.01" r="2"/><circle cx="159.99" cy="65.85" r="2"/><circle cx="175.95" cy="67.58" r="2"/><circle cx="164.35" cy="83.13" r="2"/><circle cx="153.23" cy="81.89" r="2"/><circle cx="138.61" cy="76.97" r="2"/><circle cx="133.04" cy="87.64" r="2"/><circle cx="120.47" cy="94.33" r="2"/><circle cx="115.47" cy="83.85" r="2"/><circle cx="101.11" cy="82.41" r="2"/><circle cx="96.11" cy="94.80" r="2"/><circle cx="102.42" cy="105.57" r="2"/><circle cx="109.01" cy="94.64" r="2"/><circle cx="108.77" cy="116.58" r="2"/><circle cx="104.10" cy="132.03" r="2"/><circle cx="106.75" cy="145.00" r="2"/><circle cx="125.57" cy="140.67" r="2"/><circle cx="141.90" cy="139.39" r="2"/><circle cx="149.88" cy="126.42" r="2"/><circle cx="168.87" cy="127.47" r="2"/><circle cx="181.10" cy="141.28" r="2"/><circle cx="196.88" cy="128.41" r="2"/><circle cx="193.68" cy="140.68" r="2"/><circle cx="209.40" cy="153.65" r="2"/><circle cx="220.78" cy="160.81" r="2"/><circle cx="231.83" cy="153.63" r="2"/><circle cx="229.89" cy="137.42" r="2"/><circle cx="215.81" cy="127.11" r="2"/><circle cx="214.63" cy="114.71" r="2"/><circle cx="195.79" cy="105.68" r="2"/><circle cx="182.61" cy="95.24" r="2"/><circle cx="173.26" cy="102.35" r="2"/><circle cx="179.32" cy="118.13" r="2"/><circle cx="167.48" cy="115.35" r="2"/><circle cx="152.08" cy="108.09" r="2"/><circle cx="151.54" cy="93.12" r="2"/><circle cx="132.15" cy="98.93" r="2"/><circle cx="140.83" cy="110.77" r="2"/><circle cx="128.59" cy="109.83" r="2"/><circle cx="117.20" cy="119.65" r="2"/><circle cx="95.69" cy="119.13" r="2"/><circle cx="80.17" cy="128.24" r="2"/><circle cx="63.12" cy="124.36" r="2"/><circle cx="54.81" cy="133.77" r="2"/><circle cx="53.96" cy="153.77" r="2"/><circle cx="59.16" cy="164.80" r="2"/><circle cx="53.89" cy="175.76" r="2"/><circle cx="42.41" cy="176.14" r="2"/><circle cx="39.05" cy="161.94" r="2"/><circle cx="28.46" cy="150.79" r="2"/><circle cx="16.41" cy="157.00" r="2"/><circle cx="22.72" cy="166.19" r="2"/><circle cx="7.95" cy="179.34" r="2"/><circle cx="6.22" cy="161.72" r="2"/><circle cx="11.13" cy="143.43" r="2"/><circle cx="20.16" cy="131.32" r="2"/><circle cx="30.31" cy="136.55" r="2"/><circle cx="37.08" cy="125.07" r="2"/><circle cx="42.74" cy="114.33" r="2"/><circle cx="52.38" cy="100.18" r="2"/><circle cx="35.67" cy="100.81" r="2"/><circle cx="44.03" cy="88.96" r="2"/><circle cx="26.59" cy="86.43" r="2"/><circle cx="18.93" cy="78.11" r="2"/><circle cx="6.52" cy="87.31" r="2"/><circle cx="19.14" cy="103.18" r="2"/><circle cx="8.97" cy="109.23" r="2"/><circle cx="26.43" cy="119.03" r="2"/><circle cx="7.66" cy="123.67" r="2"/><circle cx="6.95" cy="100.27" r="2"/><circle cx="15.59" cy="89.41" r="2"/><circle cx="3.61" cy="66.39" r="2"/><circle cx="14.69" cy="54.89" r="2"/><circle cx="1.97" cy="42.60" r="2"/><circle cx="0.92" cy="55.56" r="2"/><circle cx="15.50" cy="36.76" r="2"/><circle cx="33.30" cy="41.05" r="2"/><circle cx="51.35" cy="31.73" r="2"/><circle cx="61.69" cy="26.54" r="2"/><circle cx="54.72" cy="42.37" r="2"/><circle cx="75.44" cy="37.48" r="2"/><circle cx="84.28" cy="48.11" r="2"/><circle cx="92.97" cy="33.41" r="2"/><circle cx="108.46" cy="48.23" r="2"/><circle cx="122.74" cy="40.08" r="2"/><circle cx="118.75" cy="56.31" r="2"/><circle cx="123.56" cy="74.90" r="2"/><circle cx="101.17" cy="38.00" r="2"/><circle cx="92.98" cy="21.16" r="2"/><circle cx="80.12" cy="14.30" r="2"/><circle cx="39.01" cy="31.52" r="2"/><circle cx="32.20" cy="52.36" r="2"/><circle cx="45.22" cy="40.90" r="2"/><circle cx="30.37" cy="76.92" r="2"/><circle cx="64.46" cy="100.00" r="2"/><circle cx="76.02" cy="106.78" r="2"/><circle cx="70.53" cy="90.30" r="2"/><circle cx="80.89" cy="75.09" r="2"/><circle cx="94.49" cy="73.31" r="2"/><circle cx="82.32" cy="86.99" r="2"/><circle cx="69.67" cy="75.45" r="2"/><circle cx="59.63" cy="109.72" r="2"/><circle cx="78.42" cy="117.06" r="2"/><circle cx="91.39" cy="108.37" r="2"/><circle cx="84.68" cy="99.29" r="2"/><circle cx="92.38" cy="134.00" r="2"/><circle cx="80.75" cy="139.80" r="2"/><circle cx="68.64" cy="141.83" r="2"/><circle cx="77.51" cy="148.98" r="2"/><circle cx="79.84" cy="167.43" r="2"/><circle cx="91.49" cy="153.37" r="2"/><circle cx="100.46" cy="161.82" r="2"/><circle cx="103.64" cy="176.32" r="2"/><circle cx="114.53" cy="170.90" r="2"/><circle cx="123.57" cy="177.50" r="2"/><circle cx="143.44" cy="171.38" r="2"/><circle cx="149.13" cy="161.42" r="2"/><circle cx="159.22" cy="156.80" r="2"/><circle cx="156.42" cy="178.30" r="2"/><circle cx="169.06" cy="179.34" r="2"/><circle cx="176.13" cy="169.81" r="2"/><circle cx="194.15" cy="170.43" r="2"/><circle cx="179.20" cy="157.76" r="2"/><circle cx="196.94" cy="154.55" r="2"/><circle cx="205.33" cy="141.66" r="2"/><circle cx="205.79" cy="165.13" r="2"/><circle cx="208.74" cy="179.70" r="2"/><circle cx="226.96" cy="176.22" r="2"/><circle cx="234.77" cy="168.08" r="2"/><circle cx="170.42" cy="140.23" r="2"/><circle cx="158.89" cy="133.72" r="2"/><circle cx="145.31" cy="150.99" r="2"/><circle cx="135.03" cy="159.94" r="2"/><circle cx="118.00" cy="158.43" r="2"/><circle cx="156.06" cy="144.62" r="2"/><circle cx="161.66" cy="168.37" r="2"/><circle cx="169.39" cy="152.05" r="2"/><circle cx="186.97" cy="178.93" r="2"/><circle cx="125.76" cy="166.58" r="2"/><circle cx="90.68" cy="178.54" r="2"/><circle cx="69.74" cy="175.10" r="2"/><circle cx="66.90" cy="154.74" r="2"/><circle cx="46.41" cy="139.53" r="2"/><circle cx="51.11" cy="123.17" r="2"/><circle cx="41.61" cy="148.69" r="2"/><circle cx="0.43" cy="140.23" r="2"/><circle cx="28.50" cy="176.14" r="2"/><circle cx="126.30" cy="128.46" r="2"/><circle cx="116.02" cy="138.71" r="2"/><circle cx="113.81" cy="106.02" r="2"/><circle cx="142.66" cy="99.73" r="2"/><circle cx="162.98" cy="101.57" r="2"/><circle cx="138.13" cy="128.97" r="2"/><circle cx="182.83" cy="130.72" r="2"/><circle cx="190.44" cy="118.38" r="2"/><circle cx="202.58" cy="117.60" r="2"/><circle cx="211.76" cy="102.90" r="2"/><circle cx="204.20" cy="84.03" r="2"/><circle cx="224.12" cy="89.88" r="2"/><circle cx="231.52" cy="109.19" r="2"/><circle cx="238.07" cy="120.31" r="2"/><circle cx="239.93" cy="98.42" r="2"/><circle cx="238.23" cy="87.27" r="2"/><circle cx="224.84" cy="71.18" r="2"/><circle cx="230.75" cy="58.48" r="2"/><circle cx="214.66" cy="45.90" r="2"/><circle cx="225.80" cy="33.57" r="2"/><circle cx="232.99" cy="44.40" r="2"/><circle cx="219.41" cy="55.96" r="2"/><circle cx="199.47" cy="49.06" r="2"/><circle cx="192.54" cy="40.09" r="2"/><circle cx="198.80" cy="60.56" r="2"/><circle cx="212.39" cy="70.29" r="2"/><circle cx="197.66" cy="71.64" r="2"/><circle cx="185.76" cy="78.50" r="2"/><circle cx="198.98" cy="94.52" r="2"/><circle cx="183.03" cy="58.50" r="2"/><circle cx="176.39" cy="84.51" r="2"/><circle cx="233.73" cy="69.41" r="2"/><circle cx="210.73" cy="32.77" r="2"/><circle cx="215.03" cy="22.46" r="2"/><circle cx="233.83" cy="16.30" r="2"/><circle cx="239.25" cy="26.44" r="2"/><circle cx="239.09" cy="5.07" r="2"/><circle cx="227.97" cy="100.52" r="2"/><circle cx="225.39" cy="118.50" r="2"/><circle cx="211.29" cy="92.50" r="2"/><circle cx="217.43" cy="144.16" r="2"/><circle cx="239.86" cy="145.25" r="2"/><circle cx="216.34" cy="170.92" r="2"/><circle cx="144.39" cy="66.88" r="2"/><circle cx="185.32" cy="7.10" r="2"/><circle cx="175.57" cy="0.87" r="2"/><circle cx="163.08" cy="0.77" r="2"/><circle cx="96.33" cy="46.81" r="2"/><circle cx="26.50" cy="16.17" r="2"/><circle cx="38.08" cy="6.71" r="2"/><circle cx="2.80" cy="2.12" r="2"/><circle cx="51.69" cy="0.18" r="2"/><circle cx="116.59" cy="17.17" r="2"/>
  </g>
</svg>